<?xml version="1.0" encoding="UTF-8" standalone="no"?>
<!-- Created with Inkscape (http://www.inkscape.org/) -->

<svg
   xmlns:dc="http://purl.org/dc/elements/1.1/"
   xmlns:cc="http://creativecommons.org/ns#"
   xmlns:rdf="http://www.w3.org/1999/02/22-rdf-syntax-ns#"
   xmlns:svg="http://www.w3.org/2000/svg"
   xmlns="http://www.w3.org/2000/svg"
   xmlns:sodipodi="http://sodipodi.sourceforge.net/DTD/sodipodi-0.dtd"
   xmlns:inkscape="http://www.inkscape.org/namespaces/inkscape"
   width="210mm"
   height="297mm"
   id="svg2"
   version="1.1"
   inkscape:version="0.48.2 r9819"
   sodipodi:docname="level02_ink_e.svg">
  <defs
     id="defs4" />
  <sodipodi:namedview
     id="base"
     pagecolor="#ffffff"
     bordercolor="#666666"
     borderopacity="1.0"
     inkscape:pageopacity="0.0"
     inkscape:pageshadow="2"
     inkscape:zoom="1.4"
     inkscape:cx="283.79376"
     inkscape:cy="1231.8191"
     inkscape:document-units="px"
     inkscape:current-layer="layer1"
     showgrid="true"
     inkscape:snap-global="true"
     inkscape:window-width="1280"
     inkscape:window-height="962"
     inkscape:window-x="-8"
     inkscape:window-y="-8"
     inkscape:window-maximized="1">
    <inkscape:grid
       type="xygrid"
       id="grid2985" />
  </sodipodi:namedview>
  <metadata
     id="metadata7">
    <rdf:RDF>
      <cc:Work
         rdf:about="">
        <dc:format>image/svg+xml</dc:format>
        <dc:type
           rdf:resource="http://purl.org/dc/dcmitype/StillImage" />
        <dc:title></dc:title>
      </cc:Work>
    </rdf:RDF>
  </metadata>
  <g
     inkscape:label="Ebene 1"
     inkscape:groupmode="layer"
     id="layer1">
    <path
       id="path3004"
       style="fill:#666666;stroke:#000000;stroke-width:1px;stroke-linecap:butt;stroke-linejoin:miter;stroke-opacity:1"
       d="m 140,-107.63782 -30,0 -10,10.000003 c 8.59,0.754627 14.4949,7.711303 40,0 z m 340,260 c -1.91333,4.78333 -31.89617,-5.25956 -30,0 3.39152,9.40732 20,20 20,20 z m 100,0 c -30,10 -80,0 -70,10 10,10 50,40 50,30 0,-10 20,-40 20,-40 z m 60,30 c 0,0 -30,20 -30,0 0,-20 -20,-30 0,-20 20,10 30,10 30,10 z M 450,-92.637817 c 0,0 -15,0 -35,0 -14.14214,0 15,35 25,25 10,-10 10,-25 10,-25 z m 110,65 c 20,10 31.05573,5.527864 40,10 20,9.9999996 30,0 30,0 0,0 -50.00001,-3e-6 -40,-30 2.05016,-6.150486 -13.40598,3.63739 -20,0 -3.57695,-1.973112 0,-11.483181 0,-15 0,-10 -30,-5 -30,-5 l 0,-20 c -9.34988,4.281181 -48.09311,-6.828522 -60,-5 l 10,25 c 0,0 10,10 20,20 10,10 50,20 50,20 z M 20,332.36218 c 0,0 10,40 30,40 20,0 40,0 40,0 0,0 40,10 40,0 l 20,140 30,-140 c 0,0 120,-10 130,0 10,10 30,70 30,70 0,0 10,20 20,0 10,-20 0,-80 10,-90 10,-10 60,0 60,0 0,0 10,30 0,60 -10,30 -10,70 -30,70 -20,0 -80,-20 -70,0 10,20 -10,80 0,90 9.51844,19.10379 -1.32408,30.91615 20,30 10,0 30,0 30,-20 0,-6.82574 9.56876,-4.78438 20,-10 20,-10 81.54731,-0.0354 80,-10 -2.4703,-15.90858 -24.05022,-41.89956 -20,-50 10,-20 40,-140 50,-150 10,-10 10,-10 10,-10 l 0,160 c 0,0 -20,40 -10,60 10,20 -10,30 -10,30 0,0 -10,40 10,40 20,0 60,10 80,-20 20,-30 20,-50 20,-50 l -40,-10 10,-50 c 0,0 40,-90 50,-80 10,10 30,30 30,30 0,0 -20,0 -30,20 -10,20 80,10 30,20 -50,10 -40,60 -30,60 10,0 10,0 10,0 0,0 30,20 10,30 -20,10 50,30 20,30 -30,0 -40,10 -40,20 0,10 -70,30 -30,40 40,10 90,10 60,20 -30,10 -70,30 -50,30 20,0 10,20 -30,10 -40,-10 -80,-40 -120,-30 -40,10 -120,0 -150,-20 -30,-20 -100,0 -100,0 l -50,-30 c 0,0 -50,20 -90,20 -40,0 -120,20 -160,10 -40,-10 -50,-50 -30,-50 20,0 30,0 40,-20 10,-20 10,-60 0,-70 -10,-10 -50,-30 -40,-50 10,-20 30,-20 30,-20 0,0 -30,-60 -10,-60 20,0 0,-50 0,-50 0,0 -10,-40 10,-40 20,0 20,90 20,90 0,0 -10,100 10,110 20,10 20,40 20,40 0,0 -30,20 -10,30 20,10 20,50 40,50 20,0 40,-50 50,-50 10,0 -20,30 0,40 20,10 50,10 50,0 0,-10 50,-10 50,-10 0,0 110,30 110,0 0,-30 0,-110 -40,-100 -40,10 -110,20 -120,10 -10,-10 -10,-30 0,-50 10,-20 -30,-30 -40,-30 -10,0 0,60 -10,60 -10,0 -50,10 -50,-20 0,-30 -20,-90 -20,-120 0,-30 50,-50 50,-50 z m 90,-30 c -10,0 -20,30 -40,20 -20,-10 -30,-60 -30,-60 0,0 -10,-50 0,-50 10,0 20,0 20,0 l 80,0 0,100 z m 70,-90 c 0,0 50,0 90,0 40,0 160,10 180,0 20,-10 60,0 60,0 0,0 10,20 10,30 0,10 0,20 0,20 0,0 -30,20 -40,10 -10,-10 -110,-20 -140,0 -30,20 -30,20 -30,20 l -70,20 c 0,0 -40,-10 -70,0 0,-20 10,-100 10,-100 z m 0,-199.999994 c 0,0 30,0 50,0 20,0 50,-10.0000008 70,-10.0000008 20,0 -10,109.9999948 -10,109.9999948 0,0 50,-59.999997 70,-99.999997 4.85136,-9.7027128 11.51447,-18.4253997 20,-20.0000004 9.81248,-1.8208349 29.82016,-1.9499309 40,0 24.76199,11.2626593 48.57971,19.7422584 70,20.0000034 30,-3e-6 90,-3e-6 90,-3e-6 0,0 80.64797,14.723966 80,-10.0000004 -0.1903,-7.260992 30.44107,3.9480148 40,-10 17.82088,-26.0035386 20.33327,-79.3889936 20,-79.9999966 0,0 -70,-40.000006 -70,-10 0,30 -50,-20.000006 -50,-20.000006 0,0 -50,-40 -70,-30 -20,10 -70,0 -100,-10 -30,-10 -200,-20 -200,-20 0,0 -170,0 -190,10 -20,10 -60,70.000006 -60,70.000006 l -40,60 -20,60 60,-10 0,229.999994 c 0,10 10,20 10,20 l -10,0 0,0 -60,0 c 0,0 -60,50 -80,40 -20,-10 -20,60 -20,60 0,0 30,0 40,10 10,10 -20,20 -20,20 l 0,90 c 0,0 -20,60 10,80 30,20 -20,100 -40,100 -20,0 10,80 10,80 l 50,0 60,20 40,-10 40,40 60,-10 50,10 20,-10 10,170 0,20 -290,-30 c 0,0 -180,-30 -180,-40 0,-10 20,-530 20,-530 l 10,-279.999994 -70,-320.000006 200,-10 820,-20 300,-10 -40,310.000006 -30,279.999994 -20,180 -30,460 -660,10 0,-30 0,-20 c 0,0 10,-130 20,-120 10,10 70,-30 70,-30 0,0 -10,20 10,30 20,10 180,0 180,0 l 0,60 60,0 0,-60 80,0 0,-30 60,0 0,-30 30,-10 c 0,0 20,-20 10,-40 -10,-20 -30,-10 -40,-30 -10,-20 10,-10 10,-10 0,0 40,-10 50,-20 10,-10 -40,-40 -30,-50 10,-10 -20,-20 -20,-40 0,-20 20,-10 40,0 20,10 10,-50 10,-50 0,0 -20,-20 -10,-40 10,-20 -30,-60 -60,-70 -30,-10 -80,110 -80,110 l 0,-170 c 0,0 0,-80 20,-70 20,10 20,0 20,-20 0,-20 40,-10 40,-10 0,0 0,-20 20,-20 20,0 50,-10 50,-10 0,0 0,-60 -30,-80 -30,-19.999994 -180,0 -220,10 -40,10 -260,30 -260,30 -20.1089,-24.72064 -54.19813,-8.92544 -80,10 0,0 -20,20 -40,10 -20,-10 -40,-20 -40,-20 l -10,20 -10,20 c 0,0 10,-109.999997 10,-129.999997 0,-20 0,-50 0,-50 l 100,0 z"
       inkscape:connector-curvature="0"
       sodipodi:nodetypes="ccccccscccssccsscccssccscsssccccsccsccccscsscsssccsssssccscsscccscssscsssssssssccsssssscscscscssssscssssssssccscscccccsscscsscccccsscsscccsscscsscsccccsccccscsccsscccccccccccscccccccccccccscscccccccccsscsssscssccsscscssccscccsccc" />
  </g>
</svg>
