<?xml version="1.0" encoding="UTF-8" standalone="no"?>
<!-- Created with Inkscape (http://www.inkscape.org/) -->

<svg
   xmlns:dc="http://purl.org/dc/elements/1.1/"
   xmlns:cc="http://creativecommons.org/ns#"
   xmlns:rdf="http://www.w3.org/1999/02/22-rdf-syntax-ns#"
   xmlns:svg="http://www.w3.org/2000/svg"
   xmlns="http://www.w3.org/2000/svg"
   xmlns:sodipodi="http://sodipodi.sourceforge.net/DTD/sodipodi-0.dtd"
   xmlns:inkscape="http://www.inkscape.org/namespaces/inkscape"
   width="210mm"
   height="297mm"
   id="svg2"
   version="1.1"
   inkscape:version="0.48.2 r9819"
   sodipodi:docname="level01_ink.svg">
  <defs
     id="defs4" />
  <sodipodi:namedview
     id="base"
     pagecolor="#ffffff"
     bordercolor="#666666"
     borderopacity="1.0"
     inkscape:pageopacity="0.0"
     inkscape:pageshadow="2"
     inkscape:zoom="1.979899"
     inkscape:cx="273.38259"
     inkscape:cy="933.02865"
     inkscape:document-units="px"
     inkscape:current-layer="layer1"
     showgrid="true"
     inkscape:snap-global="true"
     inkscape:window-width="1280"
     inkscape:window-height="962"
     inkscape:window-x="-8"
     inkscape:window-y="-8"
     inkscape:window-maximized="1">
    <inkscape:grid
       type="xygrid"
       id="grid2985" />
  </sodipodi:namedview>
  <metadata
     id="metadata7">
    <rdf:RDF>
      <cc:Work
         rdf:about="">
        <dc:format>image/svg+xml</dc:format>
        <dc:type
           rdf:resource="http://purl.org/dc/dcmitype/StillImage" />
        <dc:title></dc:title>
      </cc:Work>
    </rdf:RDF>
  </metadata>
  <g
     inkscape:label="Ebene 1"
     inkscape:groupmode="layer"
     id="layer1">
    <path
       sodipodi:type="arc"
       style="fill:#ff0000;fill-rule:evenodd;stroke:#000000;stroke-width:1px;stroke-linecap:butt;stroke-linejoin:miter;stroke-opacity:1"
       id="path2995"
       sodipodi:cx="435"
       sodipodi:cy="172.36218"
       sodipodi:rx="15"
       sodipodi:ry="20"
       d="m 450,172.36218 a 15,20 0 1 1 -30,0 15,20 0 1 1 30,0 z"
       transform="matrix(1.3333333,0,0,0.75,-449.99999,-11.909454)" />
    <path
       sodipodi:type="arc"
       style="fill:#00ffff;fill-rule:evenodd;stroke:#000000;stroke-width:1px;stroke-linecap:butt;stroke-linejoin:miter;stroke-opacity:1"
       id="path2995-1"
       sodipodi:cx="435"
       sodipodi:cy="172.36218"
       sodipodi:rx="15"
       sodipodi:ry="20"
       d="m 450,172.36218 a 15,20 0 1 1 -30,0 15,20 0 1 1 30,0 z"
       transform="matrix(1.3333333,0,0,0.75,-69.999986,298.09055)" />
    <path
       sodipodi:type="arc"
       style="fill:#0000ff;fill-rule:evenodd;stroke:#000000;stroke-width:1px;stroke-linecap:butt;stroke-linejoin:miter;stroke-opacity:1"
       id="path2995-7"
       sodipodi:cx="435"
       sodipodi:cy="172.36218"
       sodipodi:rx="15"
       sodipodi:ry="20"
       d="m 450,172.36218 a 15,20 0 1 1 -30,0 15,20 0 1 1 30,0 z"
       transform="matrix(1.3333333,0,0,0.75,-419.99999,-106.90945)" />
    <path
       sodipodi:type="arc"
       style="fill:#552200;fill-rule:evenodd;stroke:#000000;stroke-width:1px;stroke-linecap:butt;stroke-linejoin:miter;stroke-opacity:1"
       id="path2995-4"
       sodipodi:cx="435"
       sodipodi:cy="172.36218"
       sodipodi:rx="15"
       sodipodi:ry="20"
       d="m 450,172.36218 a 15,20 0 1 1 -30,0 15,20 0 1 1 30,0 z"
       transform="matrix(1.3333333,0,0,0.75,-359.99999,238.09055)" />
    <path
       style="fill:none;stroke:#000000;stroke-width:1px;stroke-linecap:butt;stroke-linejoin:miter;stroke-opacity:1"
       d="m 45,217.36218 0,-269.999997 20,50.0000022 0,149.9999948 0,160 20,0 0,-160 c 23.51203,1.48797 52.52546,-7.52546 70,0 l 0,-30 20,0 0,20 30,0 0,-30 15,45 5,65 20,0 5,-70 20,-54.999997 5,29.999997 10,5 0,-20 20,0 0,-9.999994 20,-110.000003 0,279.999997 -105,130 -175,5 z"
       id="path3797"
       inkscape:connector-curvature="0"
       sodipodi:nodetypes="cccccccccccccccccccccccccccc" />
    <rect
       style="fill:none;stroke:#000000;stroke-opacity:1"
       id="rect3799"
       width="10"
       height="10"
       x="190"
       y="97.362183" />
    <rect
       style="fill:none;stroke:#000000;stroke-opacity:1"
       id="rect3799-1"
       width="10"
       height="10"
       x="175"
       y="77.362183" />
    <rect
       style="fill:none;stroke:#000000;stroke-opacity:1"
       id="rect3799-1-8"
       width="10"
       height="10"
       x="200"
       y="67.362183" />
    <rect
       style="fill:none;stroke:#000000;stroke-opacity:1"
       id="rect3799-1-8-8"
       width="10"
       height="10"
       x="225"
       y="67.362183" />
    <rect
       style="fill:none;stroke:#000000;stroke-opacity:1"
       id="rect3799-1-8-2"
       width="10"
       height="10"
       x="180"
       y="47.362183" />
    <rect
       style="fill:none;stroke:#000000;stroke-opacity:1"
       id="rect3799-1-8-7"
       width="10"
       height="10"
       x="155"
       y="42.362183" />
  </g>
</svg>
