<?xml version="1.0" encoding="UTF-8" standalone="no"?>
<!-- Created with Inkscape (http://www.inkscape.org/) -->

<svg
   xmlns:dc="http://purl.org/dc/elements/1.1/"
   xmlns:cc="http://creativecommons.org/ns#"
   xmlns:rdf="http://www.w3.org/1999/02/22-rdf-syntax-ns#"
   xmlns:svg="http://www.w3.org/2000/svg"
   xmlns="http://www.w3.org/2000/svg"
   xmlns:sodipodi="http://sodipodi.sourceforge.net/DTD/sodipodi-0.dtd"
   xmlns:inkscape="http://www.inkscape.org/namespaces/inkscape"
   width="210mm"
   height="297mm"
   id="svg2"
   version="1.1"
   inkscape:version="0.48.2 r9819"
   sodipodi:docname="level02_ink.svg">
  <defs
     id="defs4" />
  <sodipodi:namedview
     id="base"
     pagecolor="#ffffff"
     bordercolor="#666666"
     borderopacity="1.0"
     inkscape:pageopacity="0.0"
     inkscape:pageshadow="2"
     inkscape:zoom="0.49497475"
     inkscape:cx="607.46026"
     inkscape:cy="429.02144"
     inkscape:document-units="px"
     inkscape:current-layer="layer1"
     showgrid="true"
     inkscape:snap-global="true"
     inkscape:window-width="1366"
     inkscape:window-height="706"
     inkscape:window-x="-8"
     inkscape:window-y="-8"
     inkscape:window-maximized="1">
    <inkscape:grid
       type="xygrid"
       id="grid2985" />
  </sodipodi:namedview>
  <metadata
     id="metadata7">
    <rdf:RDF>
      <cc:Work
         rdf:about="">
        <dc:format>image/svg+xml</dc:format>
        <dc:type
           rdf:resource="http://purl.org/dc/dcmitype/StillImage" />
        <dc:title></dc:title>
      </cc:Work>
    </rdf:RDF>
  </metadata>
  <g
     inkscape:label="Ebene 1"
     inkscape:groupmode="layer"
     id="layer1">
    <path
       id="path3886"
       style="fill:#666666;stroke:#000000;stroke-width:1px;stroke-linecap:butt;stroke-linejoin:miter;stroke-opacity:1"
       d="m 220,172.36218 c 0,0 210,-40 250,-50 40,-10 190,-29.999994 220,-10 30,20 30,80 30,80 0,0 -30,10 -50,10 -20,0 -20,20 -20,20 0,0 -40,-10 -40,10 0,20 0,30 -20,20 -20,-10 -20,70 -20,70 l 0,170 c 0,0 50,-120 80,-110 30,10 70,50 60,70 -10,20 10,40 10,40 0,0 10,60 -10,50 -20,-10 -40,-20 -40,0 0,20 30,30 20,40 -10,10 40,40 30,50 -10,10 -50,20 -50,20 0,0 -20,-10 -10,10 10,20 30,10 40,30 10,20 -10,40 -10,40 l -30,10 0,30 -60,0 0,30 -80,0 0,60 -60,0 0,-60 c 0,0 -160,10 -180,0 -20,-10 -10,-30 -10,-30 0,0 -60,40 -70,30 -10,-10 -20,120 -20,120 l 0,20 0,30 660,-10 30,-460 20,-180 30,-279.999994 40,-310.000006 -300,10 -820,20 -200,10 70,320.000006 -10,279.999994 c 0,0 -20,520 -20,530 0,10 180,40 180,40 l 290,30 0,-20 -10,-170 -20,10 -50,-10 -60,10 -40,-40 -40,10 -60,-20 -50,0 c 0,0 -30,-80 -10,-80 20,0 70,-80 40,-100 -30,-20 -10,-80 -10,-80 l 0,-90 c 0,0 30,-10 20,-20 -10,-10 -40,-10 -40,-10 0,0 0,-70 20,-60 20,10 80,-40 80,-40 l 60,0 0,0 10,0 0,0 c 20,-40 20,-40 20,-40 m 0,0 c 0,0 -30,30 -30,20 l 0,-229.999994 -60,10 20,-60 40,-60 c 0,0 40,-40.000006 60,-50.000006 20,-10 190,-30 190,-30 0,0 170,20 200,30 30,10 80,20 100,10 20,-10 60,30 60,30 0,0 60,40.000006 60,10.000006 0,-30.000006 70,10 70,10 0.33327,0.611003 -12.17912,43.996461 -30,70 -9.55893,13.9480148 -30.1903,22.739008 -30,30 0.64797,24.723966 -79.51106,-11.71129337 -80,-10.0000008 0,0 -70,-10 -90,10.0000008 -20,20 -50,-10.0000008 -50,-10.0000008 0,0 -50,-29.9999992 -70,10.0000008 -20,40 -80,99.999994 -80,99.999994 0,0 30,-109.9999948 10,-109.9999948 -20,0 -50,10.0000008 -70,10.0000008 -20,0 -50,0 -50,0 l 0,149.999994 c 30,20 -0.38301,-5.06543 40,10"
       inkscape:connector-curvature="0"
       sodipodi:nodetypes="csscscssccsscsssscsscccccccccscscccscscccccccsccccscsscscsscscscssccccccccccccccccscccccccccccs" />
    <path
       style="fill:#666666;stroke:#000000;stroke-width:1px;stroke-linecap:butt;stroke-linejoin:miter;stroke-opacity:1"
       d="m 140,12.362183 0,149.999997 c 0,0 -30,20 -50,10 -20,-10 -40,-20 -40,-20 l -10,20 -10,20 c 0,0 10,-109.999997 10,-129.999997 0,-20 0,-50 0,-50 z"
       id="path3888"
       inkscape:connector-curvature="0" />
    <path
       style="fill:#666666;stroke:#000000;stroke-width:1px;stroke-linecap:butt;stroke-linejoin:miter;stroke-opacity:1"
       d="m 110,302.36218 c -10,0 -20,30 -40,20 -20,-10 -30,-60 -30,-60 0,0 -10,-50 0,-50 10,0 20,0 20,0 l 80,0 0,110 z m 70,-90 c 0,0 50,0 90,0 40,0 160,10 180,0 20,-10 60,0 60,0 0,0 10,20 10,30 0,10 0,20 0,20 0,0 -30,20 -40,10 -10,-10 -110,-20 -140,0 -30,20 -30,20 -30,20 l -70,20 c 0,0 -40,10 -70,20 0,-20 10,-120 10,-120 z"
       id="path3890"
       inkscape:connector-curvature="0"
       sodipodi:nodetypes="cscscccccsscscsscccc" />
    <path
       style="fill:#666666;stroke:#000000;stroke-width:1px;stroke-linecap:butt;stroke-linejoin:miter;stroke-opacity:1"
       d="m 20,332.36218 c 0,0 10,40 30,40 20,0 30,20 30,20 0,0 50,-10 50,-20 l 20,140 40,-150 c 0,0 110,0 120,10 10,10 30,70 30,70 0,0 10,20 20,0 10,-20 20,-80 30,-90 10,-10 40,0 40,0 0,0 10,30 0,60 -10,30 -10,70 -30,70 -20,0 -80,-20 -70,0 10,20 -10,80 0,90 9.51844,19.10379 -1.32408,30.91615 20,30 10,0 30,0 30,-20 0,-6.82574 9.56876,-4.78438 20,-10 20,-10 81.54731,-0.0354 80,-10 -2.4703,-15.90858 -24.05022,-41.89956 -20,-50 10,-20 40,-140 50,-150 10,-10 10,-10 10,-10 l 0,160 c 0,0 -20,40 -10,60 10,20 -10,30 -10,30 0,0 -10,40 10,40 20,0 60,10 80,-20 20,-30 20,-50 20,-50 l -40,-10 10,-50 c 0,0 40,-90 50,-80 10,10 30,30 30,30 0,0 -20,0 -30,20 -10,20 80,10 30,20 -50,10 -40,60 -30,60 10,0 10,0 10,0 0,0 30,20 10,30 -20,10 50,30 20,30 -30,0 -40,10 -40,20 0,10 -70,30 -30,40 40,10 90,10 60,20 -30,10 -70,30 -50,30 20,0 10,20 -30,10 -40,-10 -80,-40 -120,-30 -40,10 -120,0 -150,-20 -30,-20 -100,0 -100,0 l -50,-30 c 0,0 -50,20 -90,20 -40,0 -120,20 -160,10 -40,-10 -50,-50 -30,-50 20,0 30,0 40,-20 10,-20 10,-60 0,-70 -10,-10 -50,-30 -40,-50 10,-20 30,-20 30,-20 0,0 -30,-60 -10,-60 20,0 0,-50 0,-50 0,0 -10,-40 10,-40 20,0 20,90 20,90 0,0 -10,100 10,110 20,10 20,40 20,40 0,0 -30,20 -10,30 20,10 20,50 40,50 20,0 40,-50 50,-50 10,0 -20,30 0,40 20,10 50,10 50,0 0,-10 50,-10 50,-10 0,0 110,30 110,0 0,-30 0,-110 -40,-100 -40,10 -110,20 -120,10 -10,-10 -10,-30 0,-50 10,-20 -30,-30 -40,-30 -10,0 0,60 -10,60 -10,0 -50,10 -50,-20 0,-30 -20,-90 -20,-120 0,-30 50,-50 50,-50 z"
       id="path3892"
       inkscape:connector-curvature="0"
       sodipodi:nodetypes="csccccscsscsssccsssssccscsscccscssscsssssssssccsssssscscscscssssscssssssssc" />
    <path
       style="fill:#808080;stroke:#000000;stroke-width:1px;stroke-linecap:butt;stroke-linejoin:miter;stroke-opacity:1"
       d="m 560,-37.637817 c 20,10 31.05573,15.527864 40,20 20,9.9999996 40,9.9999996 40,9.9999996 0,0 -60,-9.9999996 -50,-39.9999996 3.16228,-9.486833 -20,-10 -20,-20 0,-10 -30,0 -30,0 l 0,-20 c -9.34988,-3.250587 -18.09311,-9.534441 -30,0 l 0,20 c 0,0 -10,10 0,20 10,10 50,10 50,10 z"
       id="path3894"
       inkscape:connector-curvature="0"
       sodipodi:nodetypes="cscssccccsc" />
    <path
       style="fill:#808080;stroke:#000000;stroke-width:1px;stroke-linecap:butt;stroke-linejoin:miter;stroke-opacity:1"
       d="m 480,-87.637817 c 0,0 -20,-20.000003 -30,-10 -10,10 10,40 20,30 10,-10 10,-20 10,-20 z"
       id="path3896"
       inkscape:connector-curvature="0"
       sodipodi:nodetypes="cssc" />
    <path
       style="fill:#666666;stroke:#000000;stroke-width:1px;stroke-linecap:butt;stroke-linejoin:miter;stroke-opacity:1"
       d="m 640,182.36218 c 0,0 -30,20 -30,0 0,-20 -20,-30 0,-20 20,10 30,10 30,10 z"
       id="path3898"
       inkscape:connector-curvature="0" />
    <path
       style="fill:#666666;stroke:#000000;stroke-width:1px;stroke-linecap:butt;stroke-linejoin:miter;stroke-opacity:1"
       d="m 580,152.36218 c -30,10 -80,0 -70,10 10,10 50,40 50,30 0,-10 20,-40 20,-40 z"
       id="path3900"
       inkscape:connector-curvature="0"
       sodipodi:nodetypes="cssc" />
    <path
       style="fill:#666666;stroke:#000000;stroke-width:1px;stroke-linecap:butt;stroke-linejoin:miter;stroke-opacity:1"
       d="m 480,152.36218 c 0,0 -30,-10 -30,0 0,10 20,20 20,20 z"
       id="path3902"
       inkscape:connector-curvature="0" />
  </g>
</svg>
